<?xml version="1.0" standalone="no"?>
<!DOCTYPE svg PUBLIC "-//W3C//DTD SVG 20010904//EN"
 "http://www.w3.org/TR/2001/REC-SVG-20010904/DTD/svg10.dtd">
<svg version="1.0" xmlns="http://www.w3.org/2000/svg"
 width="982.000000pt" height="982.000000pt" viewBox="0 0 982.000000 982.000000"
 preserveAspectRatio="xMidYMid meet">
<metadata>
Created by potrace 1.14, written by Peter Selinger 2001-2017
</metadata>
<g transform="translate(0.000000,982.000000) scale(0.100000,-0.100000)"
fill="#000000" stroke="none">
<path d="M4630 8803 c-286 -28 -439 -52 -646 -103 -699 -172 -1316 -521 -1829
-1035 -666 -665 -1056 -1511 -1136 -2460 -16 -198 -6 -606 21 -804 67 -504
220 -968 459 -1396 475 -849 1253 -1498 2166 -1805 702 -237 1464 -269 2185
-93 908 221 1727 781 2266 1550 623 888 846 1972 628 3049 -136 673 -480 1337
-961 1855 -666 718 -1558 1153 -2538 1238 -109 10 -531 13 -615 4z m645 -154
c529 -53 1043 -214 1490 -467 44 -25 150 -91 235 -148 863 -572 1454 -1480
1625 -2497 40 -241 49 -360 49 -632 0 -271 -9 -391 -49 -631 -179 -1065 -819
-2010 -1749 -2579 -893 -547 -1976 -693 -2998 -404 -383 108 -800 309 -1135
546 -240 169 -538 446 -721 667 -459 556 -744 1217 -839 1941 -28 219 -26 742
5 960 87 615 308 1177 659 1672 180 254 475 569 708 755 623 496 1333 772
2130 828 137 10 441 4 590 -11z"/>
<path d="M4019 7290 c-32 -5 -101 -20 -155 -35 -131 -34 -274 -35 -383 -3 -87
26 -257 31 -328 10 -97 -29 -196 -131 -229 -237 -20 -63 -30 -273 -16 -340 57
-278 66 -332 83 -475 10 -87 22 -185 39 -320 5 -41 14 -111 19 -155 6 -44 14
-111 20 -150 13 -91 13 -512 0 -640 -6 -55 -15 -257 -20 -450 -5 -192 -13
-395 -18 -450 -7 -87 -58 -321 -130 -599 -17 -63 -21 -110 -21 -229 0 -175 9
-204 78 -248 86 -54 132 -64 297 -63 149 1 151 1 304 47 194 59 252 61 479 16
323 -64 431 -20 482 194 18 73 18 76 -6 188 -20 97 -23 145 -24 324 -1 234
-13 332 -55 422 -32 71 -58 100 -110 124 -86 40 -208 16 -293 -56 -43 -36 -92
-121 -92 -160 0 -32 27 -84 65 -125 41 -45 75 -102 75 -128 0 -38 -36 -87 -87
-121 -89 -59 -190 -35 -287 69 -97 105 -156 253 -211 526 -27 132 -35 197 -35
281 0 59 -5 128 -11 153 -31 134 73 459 206 645 108 151 300 289 496 356 78
26 267 42 392 33 102 -8 141 -28 171 -87 26 -54 82 -286 186 -767 135 -631
130 -599 132 -859 1 -250 -4 -278 -88 -531 -61 -181 -151 -313 -312 -458 -244
-217 -382 -381 -456 -543 -114 -249 -163 -613 -107 -798 24 -77 46 -101 97
-101 l32 0 5 73 c15 238 28 369 42 422 48 186 194 364 375 459 36 19 148 71
250 116 295 130 381 186 464 303 81 115 117 204 161 400 26 116 26 116 21 474
-2 197 -9 392 -14 433 -6 41 -15 113 -22 160 -20 158 -71 413 -200 998 -39
178 -68 333 -65 343 4 11 18 25 33 33 20 10 334 140 418 173 21 8 37 -105 54
-362 23 -368 43 -440 127 -464 l30 -9 8 57 c3 31 11 193 16 361 17 586 41 745
145 955 62 126 178 235 252 235 67 0 128 -57 180 -168 25 -53 27 -66 27 -197
0 -153 -6 -195 -65 -500 -5 -27 -23 -133 -40 -235 -17 -102 -44 -252 -60 -335
-102 -532 -104 -555 -118 -1340 -4 -220 -10 -405 -14 -411 -4 -6 -8 -107 -9
-225 -3 -300 3 -313 173 -345 117 -22 392 -17 431 9 50 32 60 61 65 175 4 101
2 116 -36 257 -57 208 -63 236 -75 355 -14 135 -13 654 1 835 26 327 31 374
41 442 6 40 18 100 26 134 9 33 27 129 41 212 28 172 135 674 167 787 20 69
22 97 22 375 l0 300 -36 80 c-140 307 -146 316 -228 357 -66 32 -249 33 -369
0 -140 -38 -286 -98 -431 -176 -77 -42 -150 -76 -163 -76 -13 0 -80 32 -148
70 -149 84 -185 101 -312 145 -121 42 -229 65 -308 65 -177 0 -255 -77 -286
-282 -7 -48 -35 -168 -63 -265 -72 -256 -84 -333 -77 -473 3 -63 8 -138 12
-165 l6 -50 -229 -1 c-283 -1 -375 -12 -555 -69 -78 -25 -143 -44 -144 -42 -4
4 -50 159 -75 252 -10 39 -19 88 -19 110 0 22 -5 59 -10 83 -14 57 11 165 52
226 113 171 295 215 402 96 48 -54 52 -76 26 -172 -34 -126 -20 -185 62 -268
53 -53 108 -78 185 -86 83 -8 118 13 159 92 43 83 51 148 62 494 10 337 9 346
-71 428 -75 78 -101 86 -272 89 -82 1 -175 -3 -206 -7z m1386 -639 c77 -35
150 -141 176 -258 11 -46 10 -54 -9 -85 -52 -83 -251 -188 -356 -188 -70 0
-86 26 -86 132 1 212 54 353 152 401 43 21 74 21 123 -2z"/>
</g>
</svg>
